<?xml version="1.0" standalone="no"?>
<!DOCTYPE svg PUBLIC "-//W3C//DTD SVG 20010904//EN"
 "http://www.w3.org/TR/2001/REC-SVG-20010904/DTD/svg10.dtd">
<svg version="1.0" xmlns="http://www.w3.org/2000/svg"
 width="137.000000pt" height="137.000000pt" viewBox="0 0 137.000000 137.000000"
 preserveAspectRatio="xMidYMid meet">
<metadata>
Created by potrace 1.11, written by Peter Selinger 2001-2013
</metadata>
<g transform="translate(0.000000,137.000000) scale(0.100000,-0.100000)"
fill="#000000" stroke="none">
<path d="M586 1298 c-9 -12 -16 -19 -16 -14 0 14 -37 -37 -44 -61 -4 -13 -11
-23 -15 -23 -8 0 -31 -65 -38 -110 -21 -118 23 -194 245 -416 17 -18 32 -38
32 -45 0 -7 3 -9 7 -6 6 7 80 -94 74 -102 -1 -2 1 -7 6 -10 14 -11 33 -50 33
-71 0 -11 5 -20 11 -20 8 0 8 -4 0 -14 -7 -8 -8 -17 -3 -20 5 -3 8 -20 7 -38
-5 -58 8 -62 44 -13 18 25 29 45 24 45 -4 0 -2 4 5 9 7 4 14 24 15 44 1 20 5
37 8 37 4 0 3 15 -1 34 -4 19 -4 39 0 46 10 16 -13 90 -50 165 -17 33 -30 65
-30 72 0 6 -7 13 -15 17 -8 3 -15 12 -15 21 0 8 -3 15 -7 15 -5 0 -19 17 -33
38 -14 20 -28 42 -33 47 -61 80 -104 145 -99 149 3 3 -1 6 -8 6 -7 0 -11 3 -7
6 3 3 0 13 -6 20 -7 8 -16 20 -22 27 -5 7 -10 17 -11 22 0 6 -6 23 -12 39 -7
16 -14 46 -15 68 -1 21 -6 38 -10 38 -5 0 -5 5 -2 10 12 20 -4 9 -19 -12z"/>
<path d="M576 688 c3 -4 1 -8 -3 -8 -5 0 -17 -13 -26 -30 -10 -16 -15 -30 -11
-30 3 0 1 -7 -6 -15 -14 -17 -22 -125 -9 -125 5 0 9 -5 9 -10 0 -18 42 -72
110 -140 75 -76 106 -117 116 -154 3 -14 10 -29 15 -32 5 -3 7 -10 4 -15 -4
-5 -3 -18 0 -30 7 -20 7 -20 26 2 10 12 19 25 20 28 4 20 10 78 9 91 0 8 0 25
0 38 0 12 -5 22 -10 22 -6 0 -10 9 -10 20 0 11 -11 38 -24 59 -14 21 -23 42
-20 45 2 3 1 4 -2 1 -7 -5 -51 51 -60 78 -4 9 -10 17 -14 17 -5 0 -12 9 -15
20 -4 11 -11 18 -16 15 -5 -4 -9 3 -9 14 0 12 -4 21 -10 21 -5 0 -10 9 -10 20
0 11 -4 20 -10 20 -5 0 -10 11 -10 24 0 14 -4 27 -10 31 -5 3 -7 11 -4 19 3 7
-2 13 -10 13 -8 0 -13 -4 -10 -9z"/>
</g>
</svg>
